<svg xmlns="http://www.w3.org/2000/svg" version="1.1" xmlns:xlink="http://www.w3.org/1999/xlink" xmlns:svgjs="http://svgjs.dev/svgjs" width="1500" height="1687" viewBox="0 0 1500 1687"><g transform="matrix(1,0,0,1,0.00011015625000254659,0)"><svg viewBox="0 0 320 360" data-background-color="#ffffff" preserveAspectRatio="xMidYMid meet" height="1687" width="1500" xmlns="http://www.w3.org/2000/svg" xmlns:xlink="http://www.w3.org/1999/xlink"><g id="tight-bounds" transform="matrix(1,0,0,1,0.000023499999997511622,0)"><svg viewBox="0 0 320 360" height="360" width="320"><g><svg></svg></g><g><svg viewBox="0 0 320 360" height="360" width="320"><g><path transform="translate(-74.99272,-51.79039) scale(4.65793,4.65793)" d="M20.6 59.9l0.8 1-0.4-1.3c-0.1-0.6-0.8 0.1-0.4 0.3M21.5 59.3c0.3 0.5 0.6 1 0.6 1.5 0 0.7 0.6 1 1.1 1.2-0.7-0.8-1.1-3-1.7-2.7M59.9 16.9c1.7 0 3.3-0.2 5.1 0.2 4.4 1.1 8.1 3.3 10.6 6.4l7 11.2c0.3 2.8 0.9 5.9 0.8 9.3 0.7 0 0.6-1 1.4-1.2-0.8 2-1.2 4.5-1.4 7.4-0.5-1.6 0-4 0.1-5.3-0.7 1.1-1.1 0.3-1.1-0.2 0.1-0.8-0.3-0.7-0.6-1-1.1-1-1.8-2.1-2.6-3.8 0.5-1.3 0.6-3.2-1-4.2-0.5-0.3-1.1-0.8-1.4-1.6-0.4-1.1-1.1-2.4-0.9-4.1 0.1-0.5-1.5 1.1-2.4 0.4-3.9-2.7-7.8-5.8-12.5-8.4-2.5 0-4.3-0.9-5.2-2-0.8-1-0.2-2.3 1-2.4 0.7 0 1.5-0.2 2.1 0.2 0.1-0.4 0.5-0.9 1-0.9M50 14.6l0.2 0.1c1 0.2 1.5 1.6 2.6 1.1 0 0.7 0.1 1.4-0.1 1.9-0.3 0.8-1.2 0.8-1.9 0.8-6.7-0.4-10.6 2.4-14.7 4.8-1.1 0.7-2.3 1.2-3.2 2.1-4.3 4-9 7.7-10.1 15.1l-0.9 8.2c-0.1 0.9-1.1 1.8-0.9 2.9l0.7 4.9c-0.7-0.7-1.1 0.2-0.9 0.6 0.1 0.3 0.5 1.3 1.1 0.4 0.8 1.5 1.6 4.4 2.7 5.7 3.4 4 7.8 7.6 11.4 11.2 0.9-0.2 1.6-0.2 1.8-0.8 0.3 0.6-0.3 1.2-0.8 1.3 1.6 1 3.4 1.9 5.8 2.1 3.1 0.2 6 0.7 8.7 1.4 1.4-0.4 2.8-0.6 4.3-0.7 0.5 0 0.8-0.8 1.4-1l0.1-1c0.6 0.9 0.5-0.3 0.1-0.9 0.7 0.6 0.9 1.1 1.2 1.5 0-0.3 0.8-1.4 0.8-0.1l0.2-1.3c0.3-0.2 0.4 1.1 0.7 0.2 0.3-0.9 0.9-0.2 1.5-0.5-0.2 0.4-0.1 1.2 0.6 0.7l0.8-0.7c0.5 1.2 1.3 0.7 1.7 0.5 4.4-2.8 8.8-6.1 13-9.4l-0.1 1.3 0.5-1.6c0.5 0.5 0.9 0.1 1.1-0.2 0.6-1 1.4-2 2.7-2.9-1.6 4.3-3.5 7.7-5.9 10.5l-1 1.2c0 0.7-0.2 1.6-1 1.7-0.4 0.1-1.2-0.2-1.8 0.4-0.3 0.4 0.7 1.2-0.1 0.6-0.7-0.5-1.4 0-2.2 0.2-0.6 0.2 0.4 0.8 0.6 1.2 0.2 0.4 0.4 0.8 0.3 1.3l-1.1-1.2c-1.3 0.7-2.1 2-3.2 3-0.5 0.4-0.3 1.1-0.3 1.7-0.7 0-1.5-0.2-1.9 0.2-0.3 0.4-0.2 1-0.2 1.6-1-0.1-1.1-1.6-2-1.3-0.9 0.2-1.9 0.3-2.7 0.8 0.6 1.2-1 0.5-0.8 0.7-1.5-0.9-2.8-1.6-4.4-1-3.4-1.1-7.6-0.6-10.7-0.2 0-0.5 0.1-1-0.1-1.1-0.2 0.5-0.8 0.3-0.7 0.3-1.9-1.3-3.8-2.1-5.8-3.2-1.8 0.2-3.5-0.7-4-1.2-1.4-1.3-3-0.6-4.3-0.9-2.8-0.7-3.8-3.6-4.1-5.6-0.2-1-1-1.4-1.3-1.3-1.3-4.2-3.3-8-4.9-11.9-0.4-1-0.3-2-0.3-3.1 0.5 0.2 1 0.1 0.9-0.6-0.5-3.3-1.7-5.8-3-8.2 0.7-3.4 0.8-7.4 2.4-10.4 1.4-2.7 4-4.1 5.8-6.4 0.6-0.8 0.6-1.9 1.2-2.6 2-2 4-4.1 6.2-5.9 1-0.8 2.2 0 3.7-0.3 0.5-1.8 2.5-3.4 4.4-2.9 0.8 0.2 2.4-1.9 2.9-2.1 0.8-0.3 0.4 0.8 0.4 1.5 1.9-1.5 4.5-2.3 6.9-3.2" fill="#0080ff" fill-rule="nonzero" stroke="none" stroke-width="1" stroke-linecap="butt" stroke-linejoin="miter" stroke-miterlimit="10" stroke-dasharray="" stroke-dashoffset="0" font-family="none" font-weight="none" font-size="none" text-anchor="none" style="mix-blend-mode: normal" data-fill-palette-color="tertiary"></path></g><g transform="matrix(1,0,0,1,64,109.95053227198619)"><svg viewBox="0 0 192 140.09893545602762" height="140.09893545602762" width="192"><g><svg viewBox="0 0 192 140.09893545602762" height="140.09893545602762" width="192"><g><svg viewBox="0 0 192 140.09893545602762" height="140.09893545602762" width="192"><g transform="matrix(1,0,0,1,0,79.1981356094754)"><svg viewBox="0 0 192 60.900799846552225" height="60.900799846552225" width="192"><g id="textblocktransform"><svg viewBox="0 0 192 60.900799846552225" height="60.900799846552225" width="192" id="textblock"><g><svg viewBox="0 0 192 34.5257504555481" height="34.5257504555481" width="192"><g transform="matrix(1,0,0,1,0,0)"><svg width="192" viewBox="4.66 -36.38 254.54999999999998 45.78000000000001" height="34.5257504555481" data-palette-color="#0080ff"><path d="M12.11 0.61L12.11 0.61Q8.15 0.61 4.66-0.02L4.66-0.02 4.66-32.69Q7.89-33.08 12.15-33.08 16.41-33.08 19.86-31.92 23.32-30.76 25.63-28.61L25.63-28.61Q30.32-24.32 30.32-16.58L30.32-16.58Q30.32-7.91 25.1-3.42L25.1-3.42Q20.41 0.61 12.11 0.61ZM11.01-27.1L11.01-5.35Q12.6-5.05 14.18-5.05 15.77-5.05 17.6-5.68 19.43-6.3 20.78-7.62L20.78-7.62Q23.66-10.4 23.66-15.72L23.66-15.72Q23.66-24.46 17.29-26.46L17.29-26.46Q15.19-27.12 12.43-27.12L12.43-27.12 11.77-27.12Q11.4-27.12 11.01-27.1L11.01-27.1ZM35.67-12.55L35.67-12.55Q35.67-15.41 36.64-17.85 37.62-20.29 39.4-22.12L39.4-22.12Q43.21-26 49.36-26L49.36-26Q54.56-26 57.71-22.56L57.71-22.56Q60.81-19.24 60.81-14.21L60.81-14.21Q60.81-12.28 60.52-11.57L60.52-11.57Q58.08-10.89 50.58-10.89L50.58-10.89 41.99-10.89Q42.62-8.28 44.94-6.82 47.26-5.37 50.97-5.37L50.97-5.37Q54.86-5.37 57.64-6.76L57.64-6.76Q58.37-7.13 58.74-7.45L58.74-7.45Q58.69-6.42 58.62-5.35L58.62-5.35 58.35-1.54Q56.49-0.27 52.34 0.22L52.34 0.22Q51.12 0.37 50 0.37L50 0.37Q43.8 0.37 39.74-3.25L39.74-3.25Q35.67-6.88 35.67-12.55ZM54.32-15.63L54.32-15.63Q53.32-20.87 48.61-20.87L48.61-20.87Q44.89-20.87 42.97-17.68L42.97-17.68Q42.38-16.7 42.06-15.53L42.06-15.53Q42.65-15.5 43.5-15.48L43.5-15.48 45.31-15.48Q46.21-15.45 47.04-15.45L47.04-15.45 48.44-15.45Q49.68-15.45 50.88-15.48L50.88-15.48 52.88-15.55Q53.68-15.58 54.32-15.63ZM64.89-12.55L64.89-12.55Q64.89-15.41 65.86-17.85 66.84-20.29 68.62-22.12L68.62-22.12Q72.43-26 78.58-26L78.58-26Q83.78-26 86.93-22.56L86.93-22.56Q90.03-19.24 90.03-14.21L90.03-14.21Q90.03-12.28 89.74-11.57L89.74-11.57Q87.3-10.89 79.8-10.89L79.8-10.89 71.21-10.89Q71.85-8.28 74.16-6.82 76.48-5.37 80.2-5.37L80.2-5.37Q84.08-5.37 86.86-6.76L86.86-6.76Q87.59-7.13 87.96-7.45L87.96-7.45Q87.91-6.42 87.84-5.35L87.84-5.35 87.57-1.54Q85.71-0.27 81.56 0.22L81.56 0.22Q80.34 0.37 79.22 0.37L79.22 0.37Q73.02 0.37 68.96-3.25L68.96-3.25Q64.89-6.88 64.89-12.55ZM83.54-15.63L83.54-15.63Q82.54-20.87 77.83-20.87L77.83-20.87Q74.12-20.87 72.19-17.68L72.19-17.68Q71.6-16.7 71.28-15.53L71.28-15.53Q71.87-15.5 72.72-15.48L72.72-15.48 74.53-15.48Q75.43-15.45 76.26-15.45L76.26-15.45 77.66-15.45Q78.9-15.45 80.1-15.48L80.1-15.48 82.1-15.55Q82.91-15.58 83.54-15.63ZM112.18-1.51L112.18-1.51Q108.71 0.37 105.9 0.37 103.09 0.37 101.09-0.16 99.09-0.68 97.7-1.71L97.7-1.71Q94.87-3.78 94.87-7.71L94.87-7.71Q94.87-11.23 98.33-13.57L98.33-13.57Q102.09-16.11 108.54-16.11L108.54-16.11 109.51-16.09Q109.81-16.06 110.17-16.05 110.54-16.04 110.83-15.99L110.83-15.99Q110.64-19.9 107.46-20.56L107.46-20.56Q106.41-20.78 105.23-20.78 104.05-20.78 102.91-20.57 101.77-20.36 100.7-20.02L100.7-20.02Q98.33-19.26 97.31-18.29L97.31-18.29 97.23-18.33 96.5-23.73Q100.82-26 105.95-26L105.95-26Q113.91-26 116.13-20.26L116.13-20.26Q116.84-18.43 116.84-16.14L116.84-16.14 116.84-7.3Q116.84-4.47 118.84-3.44L118.84-3.44 114.42 0.61Q113.03-0.12 112.18-1.51ZM110.86-6.49L110.86-11.6Q110.2-11.72 109.49-11.72L109.49-11.72 108.51-11.72Q103.12-11.72 101.65-9.33L101.65-9.33Q101.21-8.62 101.21-7.84 101.21-7.06 101.49-6.46 101.77-5.86 102.43-5.47L102.43-5.47Q103.7-4.74 106.21-4.74 108.71-4.74 110.88-5.93L110.88-5.93Q110.86-6.2 110.86-6.49L110.86-6.49ZM130.8-0.51L130.8-0.51 130.8 6.67Q130.8 8.76 130.9 9.4L130.9 9.4 124.82 9.4 124.82-25.51 130.8-25.51 130.8-23.93Q133.75-26 136.46-26 139.17-26 141.27-25.24 143.37-24.49 144.96-22.9L144.96-22.9Q148.45-19.46 148.45-13.09L148.45-13.09Q148.45-8.86 146.47-5.54L146.47-5.54Q144.79-2.73 141.81-1.05L141.81-1.05Q139.17 0.44 136.1 0.44 133.02 0.44 130.8-0.51ZM130.8-18.43L130.8-6.67Q132.66-5.1 135.61-5.1L135.61-5.1Q140.44-5.1 141.86-9.77L141.86-9.77Q142.35-11.35 142.35-13.17 142.35-14.99 142.01-16.08 141.66-17.16 141.12-17.96 140.57-18.75 139.88-19.27 139.2-19.8 138.49-20.12L138.49-20.12Q137.25-20.68 135.93-20.68 134.61-20.68 133.19-20.07 131.78-19.46 130.8-18.43L130.8-18.43ZM159.92-5.83L159.92-3.22Q159.92-1.12 160.09 0L160.09 0 153.94 0 153.94-34.91 159.92-34.91 159.92-13.53 171.08-25.51 178.33-25.51 168.71-15.38 174.21-7.89Q175.99-5.05 176.89-3.74L176.89-3.74 178.5-1.46Q179.24-0.51 179.72 0L179.72 0 175.87 0Q173.72 0 172.18 0.37L172.18 0.37 164.56-10.77 159.92-5.83ZM199.42 0L199.42-32.64Q202.81-33.08 206.38-33.08L206.38-33.08Q213.02-33.08 216.47-29.97 219.93-26.86 219.93-20.65L219.93-20.65Q219.93-15.11 216.14-11.89L216.14-11.89Q212.6-8.86 207.04-8.86L207.04-8.86Q206.4-8.86 205.65-8.94L205.65-8.94 205.65 0 199.42 0ZM207.11-27.2L207.11-27.2Q206.38-27.2 205.65-27.15L205.65-27.15 205.65-14.31Q206.43-14.21 207.55-14.21 208.67-14.21 209.89-14.69 211.12-15.16 211.95-16.02L211.95-16.02Q213.68-17.8 213.68-20.7L213.68-20.7Q213.68-27.2 207.11-27.2ZM241.17-1.51L241.17-1.51Q237.7 0.37 234.89 0.37 232.08 0.37 230.08-0.16 228.08-0.68 226.69-1.71L226.69-1.71Q223.86-3.78 223.86-7.71L223.86-7.71Q223.86-11.23 227.32-13.57L227.32-13.57Q231.08-16.11 237.53-16.11L237.53-16.11 238.51-16.09Q238.8-16.06 239.16-16.05 239.53-16.04 239.82-15.99L239.82-15.99Q239.63-19.9 236.45-20.56L236.45-20.56Q235.4-20.78 234.22-20.78 233.04-20.78 231.9-20.57 230.77-20.36 229.69-20.02L229.69-20.02Q227.32-19.26 226.3-18.29L226.3-18.29 226.23-18.33 225.49-23.73Q229.81-26 234.94-26L234.94-26Q242.9-26 245.12-20.26L245.12-20.26Q245.83-18.43 245.83-16.14L245.83-16.14 245.83-7.3Q245.83-4.47 247.83-3.44L247.83-3.44 243.41 0.61Q242.02-0.12 241.17-1.51ZM239.85-6.49L239.85-11.6Q239.19-11.72 238.48-11.72L238.48-11.72 237.5-11.72Q232.11-11.72 230.64-9.33L230.64-9.33Q230.2-8.62 230.2-7.84 230.2-7.06 230.49-6.46 230.77-5.86 231.43-5.47L231.43-5.47Q232.69-4.74 235.2-4.74 237.7-4.74 239.87-5.93L239.87-5.93Q239.85-6.2 239.85-6.49L239.85-6.49ZM259.11-36.38L259.11-2.73Q259.11-0.63 259.21 0L259.21 0 253 0 253-36.38 259.11-36.38Z" opacity="1" transform="matrix(1,0,0,1,0,0)" fill="#0080ff" class="wordmark-text-0" data-fill-palette-color="primary" id="text-0"></path></svg></g></svg></g><g transform="matrix(1,0,0,1,0,39.563886065023496)"><svg viewBox="0 0 192 21.336913781528725" height="21.336913781528725" width="192"><g transform="matrix(1,0,0,1,0,0)"><svg width="192" viewBox="4.25 -37.45 431.93 48" height="21.336913781528725" data-palette-color="#0023ff"><path d="M11.35-34.4Q15.8-34.4 19.1-33.05 22.4-31.7 24.48-27.95 26.55-24.2 26.55-17.4L26.55-17.4Q26.55-7.7 22.43-3.85 18.3 0 12 0L12 0 4.25 0 4.25-34.4 11.35-34.4ZM12.05-30.75L8.9-30.75 8.9-3.6 12.3-3.6Q16.6-3.6 19.15-6.58 21.7-9.55 21.7-17.4L21.7-17.4Q21.7-22.9 20.38-25.85 19.05-28.8 16.98-29.78 14.9-30.75 12.05-30.75L12.05-30.75ZM80-13.95Q80-12.9 79.9-11.6L79.9-11.6 64.6-11.6Q64.8-7 66.45-4.98 68.1-2.95 70.95-2.95L70.95-2.95Q72.75-2.95 74.17-3.5 75.6-4.05 77.15-5.3L77.15-5.3 79.15-2.65Q75.45 0.65 70.75 0.65L70.75 0.65Q65.6 0.65 62.77-2.93 59.95-6.5 59.95-12.95L59.95-12.95Q59.95-19.4 62.65-23.18 65.35-26.95 70.15-26.95L70.15-26.95Q74.9-26.95 77.45-23.58 80-20.2 80-13.95L80-13.95ZM75.65-14.75L75.65-15.3Q75.65-23.55 70.2-23.55L70.2-23.55Q67.7-23.55 66.25-21.48 64.8-19.4 64.6-14.75L64.6-14.75 75.65-14.75ZM127.94-26.3L132.44-26.3 124.59 0 119.19 0 111.09-26.3 115.79-26.3 121.89-3.8 127.94-26.3ZM183.84-13.95Q183.84-12.9 183.74-11.6L183.74-11.6 168.44-11.6Q168.64-7 170.29-4.98 171.94-2.95 174.79-2.95L174.79-2.95Q176.59-2.95 178.02-3.5 179.44-4.05 180.99-5.3L180.99-5.3 182.99-2.65Q179.29 0.65 174.59 0.65L174.59 0.65Q169.44 0.65 166.62-2.93 163.79-6.5 163.79-12.95L163.79-12.95Q163.79-19.4 166.49-23.18 169.19-26.95 173.99-26.95L173.99-26.95Q178.74-26.95 181.29-23.58 183.84-20.2 183.84-13.95L183.84-13.95ZM179.49-14.75L179.49-15.3Q179.49-23.55 174.04-23.55L174.04-23.55Q171.54-23.55 170.09-21.48 168.64-19.4 168.44-14.75L168.44-14.75 179.49-14.75ZM223.49 0.65Q221.09 0.65 219.69-0.8 218.29-2.25 218.29-4.85L218.29-4.85 218.29-36.95 222.79-37.45 222.79-5Q222.79-3.05 224.39-3.05L224.39-3.05Q225.04-3.05 225.84-3.35L225.84-3.35 226.84-0.2Q225.24 0.65 223.49 0.65L223.49 0.65ZM269.34-26.95Q274.39-26.95 277.19-23.4 279.99-19.85 279.99-13.2L279.99-13.2Q279.99-6.8 277.14-3.08 274.29 0.65 269.29 0.65L269.29 0.65Q264.24 0.65 261.41-3 258.59-6.65 258.59-13.15L258.59-13.15Q258.59-19.7 261.44-23.33 264.29-26.95 269.34-26.95L269.34-26.95ZM269.34-23.35Q266.39-23.35 264.84-20.88 263.29-18.4 263.29-13.15L263.29-13.15Q263.29-2.9 269.29-2.9L269.29-2.9Q275.29-2.9 275.29-13.2L275.29-13.2Q275.29-18.45 273.79-20.9 272.29-23.35 269.34-23.35L269.34-23.35ZM326.28-26.95Q330.58-26.95 332.76-23.4 334.93-19.85 334.93-13.25L334.93-13.25Q334.93-6.85 332.51-3.1 330.08 0.65 325.73 0.65L325.73 0.65Q321.83 0.65 319.43-2.5L319.43-2.5 319.43 10 314.93 10.55 314.93-26.3 318.88-26.3 319.13-22.75Q321.83-26.95 326.28-26.95L326.28-26.95ZM324.68-2.95Q330.23-2.95 330.23-13.2L330.23-13.2Q330.23-18.55 328.96-20.98 327.68-23.4 325.08-23.4L325.08-23.4Q323.33-23.4 321.98-22.35 320.63-21.3 319.43-19.5L319.43-19.5 319.43-6.2Q321.48-2.95 324.68-2.95L324.68-2.95ZM388.43-13.95Q388.43-12.9 388.33-11.6L388.33-11.6 373.03-11.6Q373.23-7 374.88-4.98 376.53-2.95 379.38-2.95L379.38-2.95Q381.18-2.95 382.61-3.5 384.03-4.05 385.58-5.3L385.58-5.3 387.58-2.65Q383.88 0.65 379.18 0.65L379.18 0.65Q374.03 0.65 371.21-2.93 368.38-6.5 368.38-12.95L368.38-12.95Q368.38-19.4 371.08-23.18 373.78-26.95 378.58-26.95L378.58-26.95Q383.33-26.95 385.88-23.58 388.43-20.2 388.43-13.95L388.43-13.95ZM384.08-14.75L384.08-15.3Q384.08-23.55 378.63-23.55L378.63-23.55Q376.13-23.55 374.68-21.48 373.23-19.4 373.03-14.75L373.03-14.75 384.08-14.75ZM433.93-26.9Q435.23-26.9 436.18-26.6L436.18-26.6 435.43-22.25Q434.48-22.55 433.38-22.55L433.38-22.55Q431.18-22.55 429.8-20.8 428.43-19.05 427.63-15.45L427.63-15.45 427.63 0 423.13 0 423.13-26.3 427.03-26.3 427.38-21.1Q429.33-26.9 433.93-26.9L433.93-26.9Z" opacity="1" transform="matrix(1,0,0,1,0,0)" fill="#0023ff" class="slogan-text-1" data-fill-palette-color="secondary" id="text-1"></path></svg></g></svg></g></svg></g></svg></g><g transform="matrix(1,0,0,1,36.672,0)"><svg viewBox="0 0 118.656 74.16" height="74.16" width="118.656"><g><svg xmlns="http://www.w3.org/2000/svg" version="1.1" data-icon="project" data-container-transform="translate(0 3)" viewBox="0 3 16 10" x="0" y="0" height="74.16" width="118.656" class="icon-icon-0" data-fill-palette-color="accent" id="icon-0"><path d="M0 0v10h1v-10h-1z m15 0v10h1v-10h-1z m-13 1v2h4v-2h-4z m2 3v2h7v-2h-7z m5 3v2h5v-2h-5z" transform="translate(0 3)" fill="#0023ff" data-fill-palette-color="accent"></path></svg></g></svg></g><g></g></svg></g></svg></g></svg></g></svg></g><defs></defs></svg><rect width="320" height="360" fill="none" stroke="none" visibility="hidden"></rect></g></svg></g></svg>